<?xml version="1.0" encoding="utf-8"?>
<!-- generated at drububu.com  -->
<!DOCTYPE svg PUBLIC "-//W3C//DTD SVG 1.1//EN" "http://www.w3.org/Graphics/SVG/1.1/DTD/svg11.dtd">
<svg version="1.1" preserveAspectRatio="xMinYMin meet" xmlns="http://www.w3.org/2000/svg" xmlns:xlink="http://www.w3.org/1999/xlink" x="0px" y="0px" width="25px" height="6px" viewBox="0 0 25 6">
<path d="M0 0h1v1h-1v-1z" fill="rgb(255,255,255)"/>
<path d="M1 0h1v1h1v-1h1v1h1v1h-1v2h1v1h-1v1h-1v-1h-1v1h-1v-1h-1v-1h1v-2h-1v-1
	h1v-1z" fill="rgb(0,0,0)"/>
<path d="M2 0h1v1h-1v-1z" fill="rgb(255,255,255)"/>
<path d="M4 0h2v4h1v-4h2v1h3v1h-1v1h-1v1h-1v2h-2v-1h-1v1h-2v-1h1v-1h-1v-2h1v-1
	h-1v-1z" fill="rgb(255,255,255)"/>
<path d="M6 0h1v4h-1v-4z" fill="rgb(0,0,0)"/>
<path d="M9 0h4v2h-1v-1h-3v-1z" fill="rgb(0,0,0)"/>
<path d="M13 0h1v6h-1v-1h-3v-1h1v-1h1v-1h1v-2z" fill="rgb(255,255,255)"/>
<path d="M14 0h4v3h-1v1h1v2h-1v-1h-1v-2h-1v3h-1v-6z" fill="rgb(0,0,0)"/>
<path d="M18 0h2v1h-1v4h1v1h-2v-2h-1v-1h1v-3z" fill="rgb(255,255,255)"/>
<path d="M20 0h3v2h-1v-1h-1v1h-1v2h1v1h1v-1h1v2h-3v-1h-1v-4h1v-1z" fill="rgb(0,0,0)"/>
<path d="M23 0h2v6h-2v-2h-1v1h-1v-1h-1v-2h1v-1h1v1h1v-2z" fill="rgb(255,255,255)"/>
<path d="M15 1h2v1h-2v-1z" fill="rgb(255,255,255)"/>
<path d="M0 2h1v2h-1v-2z" fill="rgb(255,255,255)"/>
<path d="M2 2h1v2h-1v-2z" fill="rgb(255,255,255)"/>
<path d="M11 2h1v1h-1v-1z" fill="rgb(0,0,0)"/>
<path d="M10 3h1v1h-1v-1z" fill="rgb(0,0,0)"/>
<path d="M15 3h1v2h1v1h-2v-3z" fill="rgb(255,255,255)"/>
<path d="M9 4h1v1h3v1h-4v-2z" fill="rgb(0,0,0)"/>
<path d="M0 5h1v1h-1v-1z" fill="rgb(255,255,255)"/>
<path d="M2 5h1v1h-1v-1z" fill="rgb(255,255,255)"/>
<path d="M6 5h1v1h-1v-1z" fill="rgb(0,0,0)"/>
</svg>